G04 #@! TF.FileFunction,Legend,Top*
%FSLAX46Y46*%
G04 Gerber Fmt 4.6, Leading zero omitted, Abs format (unit mm)*
G04 Created by KiCad (PCBNEW 4.0.1-3.201512221402+6198~38~ubuntu14.04.1-stable) date Fri Jan 22 07:36:26 2016*
%MOMM*%
G01*
G04 APERTURE LIST*
%ADD10C,0.150000*%
%ADD11C,0.127000*%
%ADD12C,0.381000*%
%ADD13C,0.304800*%
%ADD14C,0.254000*%
%ADD15C,0.152400*%
%ADD16C,0.203200*%
%ADD17C,0.076200*%
%ADD18C,0.088900*%
G04 APERTURE END LIST*
D10*
D11*
X170053000Y-112014000D02*
X170053000Y-124206000D01*
X170053000Y-124206000D02*
X187071000Y-124206000D01*
X187071000Y-124206000D02*
X187071000Y-112014000D01*
X187071000Y-112014000D02*
X170053000Y-112014000D01*
D12*
X184150000Y-139700000D02*
X186690000Y-139700000D01*
X185569903Y-139700000D02*
G75*
G03X185569903Y-139700000I-1419903J0D01*
G01*
D13*
X252095000Y-124460000D02*
X252095000Y-137160000D01*
X252095000Y-137160000D02*
X247015000Y-137160000D01*
X247015000Y-137160000D02*
X247015000Y-124460000D01*
X247015000Y-124460000D02*
X252095000Y-124460000D01*
D14*
X200660000Y-124460000D02*
X200660000Y-134620000D01*
X198120000Y-124460000D02*
X198120000Y-134620000D01*
X198120000Y-134620000D02*
X200660000Y-134620000D01*
X200660000Y-124460000D02*
X198120000Y-124460000D01*
X220980000Y-190500000D02*
X210820000Y-190500000D01*
X220980000Y-187960000D02*
X210820000Y-187960000D01*
X210820000Y-187960000D02*
X210820000Y-190500000D01*
X220980000Y-190500000D02*
X220980000Y-187960000D01*
D15*
X200660000Y-176530000D02*
X198120000Y-176530000D01*
X198120000Y-176530000D02*
X198120000Y-168910000D01*
X198120000Y-168910000D02*
X200660000Y-168910000D01*
X200660000Y-168910000D02*
X200660000Y-176530000D01*
X198120000Y-173990000D02*
X200660000Y-173990000D01*
X212090000Y-176530000D02*
X209550000Y-176530000D01*
X209550000Y-176530000D02*
X209550000Y-168910000D01*
X209550000Y-168910000D02*
X212090000Y-168910000D01*
X212090000Y-168910000D02*
X212090000Y-176530000D01*
X209550000Y-173990000D02*
X212090000Y-173990000D01*
X224790000Y-176530000D02*
X222250000Y-176530000D01*
X222250000Y-176530000D02*
X222250000Y-168910000D01*
X222250000Y-168910000D02*
X224790000Y-168910000D01*
X224790000Y-168910000D02*
X224790000Y-176530000D01*
X222250000Y-173990000D02*
X224790000Y-173990000D01*
X256540000Y-176530000D02*
X254000000Y-176530000D01*
X254000000Y-176530000D02*
X254000000Y-168910000D01*
X254000000Y-168910000D02*
X256540000Y-168910000D01*
X256540000Y-168910000D02*
X256540000Y-176530000D01*
X254000000Y-173990000D02*
X256540000Y-173990000D01*
X190500000Y-176530000D02*
X187960000Y-176530000D01*
X187960000Y-176530000D02*
X187960000Y-168910000D01*
X187960000Y-168910000D02*
X190500000Y-168910000D01*
X190500000Y-168910000D02*
X190500000Y-176530000D01*
X187960000Y-173990000D02*
X190500000Y-173990000D01*
X237490000Y-171450000D02*
X240030000Y-171450000D01*
X240030000Y-171450000D02*
X240030000Y-176530000D01*
X240030000Y-176530000D02*
X237490000Y-176530000D01*
X237490000Y-176530000D02*
X237490000Y-171450000D01*
D13*
X236220000Y-193040000D02*
X236220000Y-190500000D01*
X236220000Y-190500000D02*
X251460000Y-190500000D01*
X251460000Y-190500000D02*
X251460000Y-193040000D01*
X251460000Y-193040000D02*
X236220000Y-193040000D01*
X238760000Y-193040000D02*
X238760000Y-190500000D01*
D16*
X191465200Y-149860000D02*
X191465200Y-153670000D01*
D17*
X195852051Y-151765000D02*
G75*
G03X195852051Y-151765000I-1796051J0D01*
G01*
D14*
X191518003Y-153672668D02*
G75*
G03X191516000Y-149860000I2537997J1907668D01*
G01*
D15*
X194056000Y-152908000D02*
G75*
G03X195199000Y-151765000I0J1143000D01*
G01*
X194056000Y-150622000D02*
G75*
G03X192913000Y-151765000I0J-1143000D01*
G01*
X194056000Y-153416000D02*
G75*
G03X195707000Y-151765000I0J1651000D01*
G01*
X194056000Y-150114000D02*
G75*
G03X192405000Y-151765000I0J-1651000D01*
G01*
X194056000Y-153924000D02*
G75*
G03X196215000Y-151765000I0J2159000D01*
G01*
X194056000Y-149606000D02*
G75*
G03X191897000Y-151765000I0J-2159000D01*
G01*
D14*
X229235000Y-124460000D02*
X229235000Y-125730000D01*
X229235000Y-125730000D02*
X226695000Y-125730000D01*
X226695000Y-125730000D02*
X226695000Y-124460000D01*
X230505000Y-124460000D02*
X230505000Y-134620000D01*
X230505000Y-134620000D02*
X225425000Y-134620000D01*
X225425000Y-134620000D02*
X225425000Y-124460000D01*
X225425000Y-124460000D02*
X230505000Y-124460000D01*
D13*
X174534286Y-119960571D02*
X174606857Y-120033142D01*
X174679429Y-120250856D01*
X174679429Y-120395999D01*
X174606857Y-120613714D01*
X174461714Y-120758856D01*
X174316571Y-120831428D01*
X174026286Y-120903999D01*
X173808571Y-120903999D01*
X173518286Y-120831428D01*
X173373143Y-120758856D01*
X173228000Y-120613714D01*
X173155429Y-120395999D01*
X173155429Y-120250856D01*
X173228000Y-120033142D01*
X173300571Y-119960571D01*
X173155429Y-119017142D02*
X173155429Y-118726856D01*
X173228000Y-118581714D01*
X173373143Y-118436571D01*
X173663429Y-118363999D01*
X174171429Y-118363999D01*
X174461714Y-118436571D01*
X174606857Y-118581714D01*
X174679429Y-118726856D01*
X174679429Y-119017142D01*
X174606857Y-119162285D01*
X174461714Y-119307428D01*
X174171429Y-119379999D01*
X173663429Y-119379999D01*
X173373143Y-119307428D01*
X173228000Y-119162285D01*
X173155429Y-119017142D01*
X174679429Y-117710857D02*
X173155429Y-117710857D01*
X174679429Y-116840000D01*
X173155429Y-116840000D01*
X173300571Y-116186857D02*
X173228000Y-116114286D01*
X173155429Y-115969143D01*
X173155429Y-115606286D01*
X173228000Y-115461143D01*
X173300571Y-115388572D01*
X173445714Y-115316000D01*
X173590857Y-115316000D01*
X173808571Y-115388572D01*
X174679429Y-116259429D01*
X174679429Y-115316000D01*
X179505429Y-125076856D02*
X180739143Y-125076856D01*
X180884286Y-125004284D01*
X180956857Y-124931713D01*
X181029429Y-124786570D01*
X181029429Y-124496284D01*
X180956857Y-124351142D01*
X180884286Y-124278570D01*
X180739143Y-124205999D01*
X179505429Y-124205999D01*
X180956857Y-123552856D02*
X181029429Y-123335142D01*
X181029429Y-122972285D01*
X180956857Y-122827142D01*
X180884286Y-122754571D01*
X180739143Y-122681999D01*
X180594000Y-122681999D01*
X180448857Y-122754571D01*
X180376286Y-122827142D01*
X180303714Y-122972285D01*
X180231143Y-123262571D01*
X180158571Y-123407713D01*
X180086000Y-123480285D01*
X179940857Y-123552856D01*
X179795714Y-123552856D01*
X179650571Y-123480285D01*
X179578000Y-123407713D01*
X179505429Y-123262571D01*
X179505429Y-122899713D01*
X179578000Y-122681999D01*
X180231143Y-121520856D02*
X180303714Y-121303142D01*
X180376286Y-121230570D01*
X180521429Y-121157999D01*
X180739143Y-121157999D01*
X180884286Y-121230570D01*
X180956857Y-121303142D01*
X181029429Y-121448284D01*
X181029429Y-122028856D01*
X179505429Y-122028856D01*
X179505429Y-121520856D01*
X179578000Y-121375713D01*
X179650571Y-121303142D01*
X179795714Y-121230570D01*
X179940857Y-121230570D01*
X180086000Y-121303142D01*
X180158571Y-121375713D01*
X180231143Y-121520856D01*
X180231143Y-122028856D01*
X180448857Y-120504856D02*
X180448857Y-119343713D01*
X181029429Y-118617999D02*
X179505429Y-118617999D01*
X180594000Y-118109999D01*
X179505429Y-117601999D01*
X181029429Y-117601999D01*
X181029429Y-116876285D02*
X179505429Y-116876285D01*
X181029429Y-116150571D02*
X179505429Y-116150571D01*
X181029429Y-115279714D01*
X179505429Y-115279714D01*
X181029429Y-114554000D02*
X179505429Y-114554000D01*
X180448857Y-113828286D02*
X180448857Y-112667143D01*
X180231143Y-111433429D02*
X180303714Y-111215715D01*
X180376286Y-111143143D01*
X180521429Y-111070572D01*
X180739143Y-111070572D01*
X180884286Y-111143143D01*
X180956857Y-111215715D01*
X181029429Y-111360857D01*
X181029429Y-111941429D01*
X179505429Y-111941429D01*
X179505429Y-111433429D01*
X179578000Y-111288286D01*
X179650571Y-111215715D01*
X179795714Y-111143143D01*
X179940857Y-111143143D01*
X180086000Y-111215715D01*
X180158571Y-111288286D01*
X180231143Y-111433429D01*
X180231143Y-111941429D01*
D16*
X184192333Y-142871976D02*
X183769000Y-142206738D01*
X183466619Y-142871976D02*
X183466619Y-141474976D01*
X183950428Y-141474976D01*
X184071381Y-141541500D01*
X184131857Y-141608024D01*
X184192333Y-141741071D01*
X184192333Y-141940643D01*
X184131857Y-142073690D01*
X184071381Y-142140214D01*
X183950428Y-142206738D01*
X183466619Y-142206738D01*
X185401857Y-142871976D02*
X184676143Y-142871976D01*
X185039000Y-142871976D02*
X185039000Y-141474976D01*
X184918048Y-141674548D01*
X184797095Y-141807595D01*
X184676143Y-141874119D01*
X253727857Y-132678714D02*
X253776238Y-132727095D01*
X253824619Y-132872238D01*
X253824619Y-132969000D01*
X253776238Y-133114142D01*
X253679476Y-133210904D01*
X253582714Y-133259285D01*
X253389190Y-133307666D01*
X253244048Y-133307666D01*
X253050524Y-133259285D01*
X252953762Y-133210904D01*
X252857000Y-133114142D01*
X252808619Y-132969000D01*
X252808619Y-132872238D01*
X252857000Y-132727095D01*
X252905381Y-132678714D01*
X252808619Y-132049761D02*
X252808619Y-131856238D01*
X252857000Y-131759476D01*
X252953762Y-131662714D01*
X253147286Y-131614333D01*
X253485952Y-131614333D01*
X253679476Y-131662714D01*
X253776238Y-131759476D01*
X253824619Y-131856238D01*
X253824619Y-132049761D01*
X253776238Y-132146523D01*
X253679476Y-132243285D01*
X253485952Y-132291666D01*
X253147286Y-132291666D01*
X252953762Y-132243285D01*
X252857000Y-132146523D01*
X252808619Y-132049761D01*
X253824619Y-131178904D02*
X252808619Y-131178904D01*
X253824619Y-130598333D01*
X252808619Y-130598333D01*
X253824619Y-129582333D02*
X253824619Y-130162904D01*
X253824619Y-129872618D02*
X252808619Y-129872618D01*
X252953762Y-129969380D01*
X253050524Y-130066142D01*
X253098905Y-130162904D01*
X197309619Y-130289904D02*
X196293619Y-130289904D01*
X196293619Y-129902857D01*
X196342000Y-129806095D01*
X196390381Y-129757714D01*
X196487143Y-129709333D01*
X196632286Y-129709333D01*
X196729048Y-129757714D01*
X196777429Y-129806095D01*
X196825810Y-129902857D01*
X196825810Y-130289904D01*
X196390381Y-129322285D02*
X196342000Y-129273904D01*
X196293619Y-129177142D01*
X196293619Y-128935238D01*
X196342000Y-128838476D01*
X196390381Y-128790095D01*
X196487143Y-128741714D01*
X196583905Y-128741714D01*
X196729048Y-128790095D01*
X197309619Y-129370666D01*
X197309619Y-128741714D01*
X215150096Y-187149619D02*
X215150096Y-186133619D01*
X215537143Y-186133619D01*
X215633905Y-186182000D01*
X215682286Y-186230381D01*
X215730667Y-186327143D01*
X215730667Y-186472286D01*
X215682286Y-186569048D01*
X215633905Y-186617429D01*
X215537143Y-186665810D01*
X215150096Y-186665810D01*
X216601524Y-186472286D02*
X216601524Y-187149619D01*
X216359620Y-186085238D02*
X216117715Y-186810952D01*
X216746667Y-186810952D01*
D15*
X197690619Y-173215904D02*
X196674619Y-173215904D01*
X197690619Y-172635333D02*
X197110048Y-173070761D01*
X196674619Y-172635333D02*
X197255190Y-173215904D01*
X197690619Y-171667714D02*
X197690619Y-172248285D01*
X197690619Y-171957999D02*
X196674619Y-171957999D01*
X196819762Y-172054761D01*
X196916524Y-172151523D01*
X196964905Y-172248285D01*
X209120619Y-173215904D02*
X208104619Y-173215904D01*
X209120619Y-172635333D02*
X208540048Y-173070761D01*
X208104619Y-172635333D02*
X208685190Y-173215904D01*
X208201381Y-172248285D02*
X208153000Y-172199904D01*
X208104619Y-172103142D01*
X208104619Y-171861238D01*
X208153000Y-171764476D01*
X208201381Y-171716095D01*
X208298143Y-171667714D01*
X208394905Y-171667714D01*
X208540048Y-171716095D01*
X209120619Y-172296666D01*
X209120619Y-171667714D01*
X221820619Y-173215904D02*
X220804619Y-173215904D01*
X221820619Y-172635333D02*
X221240048Y-173070761D01*
X220804619Y-172635333D02*
X221385190Y-173215904D01*
X221143286Y-171764476D02*
X221820619Y-171764476D01*
X220756238Y-172006380D02*
X221481952Y-172248285D01*
X221481952Y-171619333D01*
X253570619Y-173215904D02*
X252554619Y-173215904D01*
X253570619Y-172635333D02*
X252990048Y-173070761D01*
X252554619Y-172635333D02*
X253135190Y-173215904D01*
X252554619Y-172296666D02*
X252554619Y-171667714D01*
X252941667Y-172006380D01*
X252941667Y-171861238D01*
X252990048Y-171764476D01*
X253038429Y-171716095D01*
X253135190Y-171667714D01*
X253377095Y-171667714D01*
X253473857Y-171716095D01*
X253522238Y-171764476D01*
X253570619Y-171861238D01*
X253570619Y-172151523D01*
X253522238Y-172248285D01*
X253473857Y-172296666D01*
X187530619Y-173215904D02*
X186514619Y-173215904D01*
X187530619Y-172635333D02*
X186950048Y-173070761D01*
X186514619Y-172635333D02*
X187095190Y-173215904D01*
X186514619Y-171716095D02*
X186514619Y-172199904D01*
X186998429Y-172248285D01*
X186950048Y-172199904D01*
X186901667Y-172103142D01*
X186901667Y-171861238D01*
X186950048Y-171764476D01*
X186998429Y-171716095D01*
X187095190Y-171667714D01*
X187337095Y-171667714D01*
X187433857Y-171716095D01*
X187482238Y-171764476D01*
X187530619Y-171861238D01*
X187530619Y-172103142D01*
X187482238Y-172199904D01*
X187433857Y-172248285D01*
X241009714Y-174552428D02*
X240247714Y-174552428D01*
X240247714Y-174262143D01*
X240284000Y-174189571D01*
X240320286Y-174153286D01*
X240392857Y-174117000D01*
X240501714Y-174117000D01*
X240574286Y-174153286D01*
X240610571Y-174189571D01*
X240646857Y-174262143D01*
X240646857Y-174552428D01*
X240247714Y-173863000D02*
X240247714Y-173391286D01*
X240538000Y-173645286D01*
X240538000Y-173536428D01*
X240574286Y-173463857D01*
X240610571Y-173427571D01*
X240683143Y-173391286D01*
X240864571Y-173391286D01*
X240937143Y-173427571D01*
X240973429Y-173463857D01*
X241009714Y-173536428D01*
X241009714Y-173754143D01*
X240973429Y-173826714D01*
X240937143Y-173863000D01*
D16*
X243090096Y-190070619D02*
X243090096Y-189054619D01*
X243477143Y-189054619D01*
X243573905Y-189103000D01*
X243622286Y-189151381D01*
X243670667Y-189248143D01*
X243670667Y-189393286D01*
X243622286Y-189490048D01*
X243573905Y-189538429D01*
X243477143Y-189586810D01*
X243090096Y-189586810D01*
X244638286Y-190070619D02*
X244057715Y-190070619D01*
X244348001Y-190070619D02*
X244348001Y-189054619D01*
X244251239Y-189199762D01*
X244154477Y-189296524D01*
X244057715Y-189344905D01*
D18*
X193747572Y-155919714D02*
X193747572Y-155157714D01*
X193929000Y-155157714D01*
X194037857Y-155194000D01*
X194110429Y-155266571D01*
X194146714Y-155339143D01*
X194183000Y-155484286D01*
X194183000Y-155593143D01*
X194146714Y-155738286D01*
X194110429Y-155810857D01*
X194037857Y-155883429D01*
X193929000Y-155919714D01*
X193747572Y-155919714D01*
X194908714Y-155919714D02*
X194473286Y-155919714D01*
X194691000Y-155919714D02*
X194691000Y-155157714D01*
X194618429Y-155266571D01*
X194545857Y-155339143D01*
X194473286Y-155375429D01*
X193820143Y-148299714D02*
X193457286Y-148299714D01*
X193457286Y-147537714D01*
X194074143Y-147900571D02*
X194328143Y-147900571D01*
X194437000Y-148299714D02*
X194074143Y-148299714D01*
X194074143Y-147537714D01*
X194437000Y-147537714D01*
X194763572Y-148299714D02*
X194763572Y-147537714D01*
X194945000Y-147537714D01*
X195053857Y-147574000D01*
X195126429Y-147646571D01*
X195162714Y-147719143D01*
X195199000Y-147864286D01*
X195199000Y-147973143D01*
X195162714Y-148118286D01*
X195126429Y-148190857D01*
X195053857Y-148263429D01*
X194945000Y-148299714D01*
X194763572Y-148299714D01*
D16*
X226849215Y-123764524D02*
X226849215Y-122494524D01*
X228046644Y-123643571D02*
X227992215Y-123704048D01*
X227828929Y-123764524D01*
X227720072Y-123764524D01*
X227556787Y-123704048D01*
X227447929Y-123583095D01*
X227393501Y-123462143D01*
X227339072Y-123220238D01*
X227339072Y-123038810D01*
X227393501Y-122796905D01*
X227447929Y-122675952D01*
X227556787Y-122555000D01*
X227720072Y-122494524D01*
X227828929Y-122494524D01*
X227992215Y-122555000D01*
X228046644Y-122615476D01*
X229135215Y-123764524D02*
X228482072Y-123764524D01*
X228808644Y-123764524D02*
X228808644Y-122494524D01*
X228699787Y-122675952D01*
X228590929Y-122796905D01*
X228482072Y-122857381D01*
X228176667Y-133870095D02*
X228176667Y-133386286D01*
X228539524Y-133966857D02*
X227269524Y-133628190D01*
X228539524Y-133289524D01*
X227269524Y-133096000D02*
X227269524Y-132515429D01*
X228539524Y-132805714D02*
X227269524Y-132805714D01*
X227269524Y-132321905D02*
X227269524Y-131741334D01*
X228539524Y-132031619D02*
X227269524Y-132031619D01*
X228539524Y-131402667D02*
X227269524Y-131402667D01*
X228539524Y-130918857D02*
X227269524Y-130918857D01*
X228539524Y-130338286D01*
X227269524Y-130338286D01*
X227934762Y-129660952D02*
X228539524Y-129660952D01*
X227269524Y-129999619D02*
X227934762Y-129660952D01*
X227269524Y-129322286D01*
X227813810Y-128838476D02*
X227753333Y-128935238D01*
X227692857Y-128983619D01*
X227571905Y-129032000D01*
X227511429Y-129032000D01*
X227390476Y-128983619D01*
X227330000Y-128935238D01*
X227269524Y-128838476D01*
X227269524Y-128644953D01*
X227330000Y-128548191D01*
X227390476Y-128499810D01*
X227511429Y-128451429D01*
X227571905Y-128451429D01*
X227692857Y-128499810D01*
X227753333Y-128548191D01*
X227813810Y-128644953D01*
X227813810Y-128838476D01*
X227874286Y-128935238D01*
X227934762Y-128983619D01*
X228055714Y-129032000D01*
X228297619Y-129032000D01*
X228418571Y-128983619D01*
X228479048Y-128935238D01*
X228539524Y-128838476D01*
X228539524Y-128644953D01*
X228479048Y-128548191D01*
X228418571Y-128499810D01*
X228297619Y-128451429D01*
X228055714Y-128451429D01*
X227934762Y-128499810D01*
X227874286Y-128548191D01*
X227813810Y-128644953D01*
X227269524Y-127532191D02*
X227269524Y-128016000D01*
X227874286Y-128064381D01*
X227813810Y-128016000D01*
X227753333Y-127919238D01*
X227753333Y-127677334D01*
X227813810Y-127580572D01*
X227874286Y-127532191D01*
X227995238Y-127483810D01*
X228297619Y-127483810D01*
X228418571Y-127532191D01*
X228479048Y-127580572D01*
X228539524Y-127677334D01*
X228539524Y-127919238D01*
X228479048Y-128016000D01*
X228418571Y-128064381D01*
X228055714Y-127048381D02*
X228055714Y-126274286D01*
X228539524Y-125790476D02*
X227269524Y-125790476D01*
X227269524Y-125403429D01*
X227330000Y-125306667D01*
X227390476Y-125258286D01*
X227511429Y-125209905D01*
X227692857Y-125209905D01*
X227813810Y-125258286D01*
X227874286Y-125306667D01*
X227934762Y-125403429D01*
X227934762Y-125790476D01*
M02*
