G04 #@! TF.FileFunction,Copper,L1,Top,Signal*
%FSLAX46Y46*%
G04 Gerber Fmt 4.6, Leading zero omitted, Abs format (unit mm)*
G04 Created by KiCad (PCBNEW 4.0.1-3.201512221402+6198~38~ubuntu14.04.1-stable) date Fri Jan 22 07:36:26 2016*
%MOMM*%
G01*
G04 APERTURE LIST*
%ADD10C,0.150000*%
%ADD11C,1.524000*%
%ADD12C,2.700020*%
%ADD13C,1.397000*%
%ADD14R,1.524000X1.524000*%
%ADD15C,1.676400*%
%ADD16R,1.397000X1.397000*%
G04 APERTURE END LIST*
D10*
D11*
X185039000Y-119380000D03*
X185039000Y-116840000D03*
X183040020Y-116840000D03*
X183040020Y-119380000D03*
D12*
X180340000Y-124109480D03*
X180340000Y-112110520D03*
D13*
X184150000Y-139700000D03*
X186690000Y-139700000D03*
D14*
X248285000Y-125730000D03*
D11*
X250825000Y-125730000D03*
X248285000Y-128270000D03*
X250825000Y-128270000D03*
X248285000Y-130810000D03*
X250825000Y-130810000D03*
X248285000Y-133350000D03*
X250825000Y-133350000D03*
X248285000Y-135890000D03*
X250825000Y-135890000D03*
D14*
X199390000Y-133350000D03*
D11*
X199390000Y-130810000D03*
X199390000Y-128270000D03*
X199390000Y-125730000D03*
D14*
X212090000Y-189230000D03*
D11*
X214630000Y-189230000D03*
X217170000Y-189230000D03*
X219710000Y-189230000D03*
D14*
X199390000Y-175260000D03*
D11*
X199390000Y-172720000D03*
X199390000Y-170180000D03*
D14*
X210820000Y-175260000D03*
D11*
X210820000Y-172720000D03*
X210820000Y-170180000D03*
D14*
X223520000Y-175260000D03*
D11*
X223520000Y-172720000D03*
X223520000Y-170180000D03*
D14*
X255270000Y-175260000D03*
D11*
X255270000Y-172720000D03*
X255270000Y-170180000D03*
D14*
X189230000Y-175260000D03*
D11*
X189230000Y-172720000D03*
X189230000Y-170180000D03*
D14*
X238760000Y-172720000D03*
D11*
X238760000Y-175260000D03*
D14*
X237490000Y-191770000D03*
D11*
X240030000Y-191770000D03*
X242570000Y-191770000D03*
X245110000Y-191770000D03*
X247650000Y-191770000D03*
X250190000Y-191770000D03*
D15*
X195580000Y-151765000D03*
X193040000Y-151765000D03*
D16*
X224155000Y-125730000D03*
D13*
X224155000Y-128270000D03*
X224155000Y-130810000D03*
X224155000Y-133350000D03*
X231775000Y-133350000D03*
X231775000Y-130810000D03*
X231775000Y-128270000D03*
X231775000Y-125730000D03*
M02*
