G04 #@! TF.FileFunction,Copper,L2,Bot,Signal*
%FSLAX46Y46*%
G04 Gerber Fmt 4.6, Leading zero omitted, Abs format (unit mm)*
G04 Created by KiCad (PCBNEW 4.0.1-3.201512221402+6198~38~ubuntu14.04.1-stable) date Fri Jan 22 07:36:26 2016*
%MOMM*%
G01*
G04 APERTURE LIST*
%ADD10C,0.150000*%
%ADD11C,1.524000*%
%ADD12C,2.700020*%
%ADD13C,1.397000*%
%ADD14R,1.524000X1.524000*%
%ADD15C,1.676400*%
%ADD16R,1.397000X1.397000*%
%ADD17C,0.254000*%
G04 APERTURE END LIST*
D10*
D11*
X185039000Y-119380000D03*
X185039000Y-116840000D03*
X183040020Y-116840000D03*
X183040020Y-119380000D03*
D12*
X180340000Y-124109480D03*
X180340000Y-112110520D03*
D13*
X184150000Y-139700000D03*
X186690000Y-139700000D03*
D14*
X248285000Y-125730000D03*
D11*
X250825000Y-125730000D03*
X248285000Y-128270000D03*
X250825000Y-128270000D03*
X248285000Y-130810000D03*
X250825000Y-130810000D03*
X248285000Y-133350000D03*
X250825000Y-133350000D03*
X248285000Y-135890000D03*
X250825000Y-135890000D03*
D14*
X199390000Y-133350000D03*
D11*
X199390000Y-130810000D03*
X199390000Y-128270000D03*
X199390000Y-125730000D03*
D14*
X212090000Y-189230000D03*
D11*
X214630000Y-189230000D03*
X217170000Y-189230000D03*
X219710000Y-189230000D03*
D14*
X199390000Y-175260000D03*
D11*
X199390000Y-172720000D03*
X199390000Y-170180000D03*
D14*
X210820000Y-175260000D03*
D11*
X210820000Y-172720000D03*
X210820000Y-170180000D03*
D14*
X223520000Y-175260000D03*
D11*
X223520000Y-172720000D03*
X223520000Y-170180000D03*
D14*
X255270000Y-175260000D03*
D11*
X255270000Y-172720000D03*
X255270000Y-170180000D03*
D14*
X189230000Y-175260000D03*
D11*
X189230000Y-172720000D03*
X189230000Y-170180000D03*
D14*
X238760000Y-172720000D03*
D11*
X238760000Y-175260000D03*
D14*
X237490000Y-191770000D03*
D11*
X240030000Y-191770000D03*
X242570000Y-191770000D03*
X245110000Y-191770000D03*
X247650000Y-191770000D03*
X250190000Y-191770000D03*
D15*
X195580000Y-151765000D03*
X193040000Y-151765000D03*
D16*
X224155000Y-125730000D03*
D13*
X224155000Y-128270000D03*
X224155000Y-130810000D03*
X224155000Y-133350000D03*
X231775000Y-133350000D03*
X231775000Y-130810000D03*
X231775000Y-128270000D03*
X231775000Y-125730000D03*
D17*
X189230000Y-175260000D02*
X189230000Y-174688300D01*
X189230000Y-174688300D02*
X189230000Y-174116700D01*
X197675000Y-174688300D02*
X198246700Y-175260000D01*
X189230000Y-174688300D02*
X197675000Y-174688300D01*
X184150000Y-169322400D02*
X184150000Y-139700000D01*
X188944300Y-174116700D02*
X184150000Y-169322400D01*
X189230000Y-174116700D02*
X188944300Y-174116700D01*
X189580500Y-134269500D02*
X189580500Y-133350000D01*
X184150000Y-139700000D02*
X189580500Y-134269500D01*
X199390000Y-133350000D02*
X189580500Y-133350000D01*
X189580500Y-133350000D02*
X180340000Y-124109500D01*
X237490000Y-175260000D02*
X237490000Y-191770000D01*
X238760000Y-175260000D02*
X237490000Y-175260000D01*
X237490000Y-175260000D02*
X223520000Y-175260000D01*
X223520000Y-175260000D02*
X222376700Y-175260000D01*
X218058300Y-187578300D02*
X219710000Y-189230000D01*
X214239700Y-187578300D02*
X218058300Y-187578300D01*
X229415500Y-138610500D02*
X251251900Y-138610500D01*
X224155000Y-133350000D02*
X229415500Y-138610500D01*
X253044300Y-130489300D02*
X250825000Y-128270000D01*
X253044300Y-136818100D02*
X253044300Y-130489300D01*
X251251900Y-138610500D02*
X253044300Y-136818100D01*
X255270000Y-188307000D02*
X255270000Y-175260000D01*
X249040900Y-194536100D02*
X255270000Y-188307000D01*
X215321600Y-194536100D02*
X249040900Y-194536100D01*
X210946600Y-190161100D02*
X215321600Y-194536100D01*
X210946600Y-188304700D02*
X210946600Y-190161100D01*
X211673000Y-187578300D02*
X210946600Y-188304700D01*
X214239700Y-187578300D02*
X211673000Y-187578300D01*
X256924700Y-144283300D02*
X251251900Y-138610500D01*
X256924700Y-172747800D02*
X256924700Y-144283300D01*
X255555800Y-174116700D02*
X256924700Y-172747800D01*
X255270000Y-174116700D02*
X255555800Y-174116700D01*
X255270000Y-175260000D02*
X255270000Y-174116700D01*
X214239700Y-177929900D02*
X214239700Y-187578300D01*
X219706800Y-177929900D02*
X214239700Y-177929900D01*
X222376700Y-175260000D02*
X219706800Y-177929900D01*
X211963300Y-175653500D02*
X211963300Y-175260000D01*
X214239700Y-177929900D02*
X211963300Y-175653500D01*
X210820000Y-175260000D02*
X211963300Y-175260000D01*
X198818400Y-175260000D02*
X198246700Y-175260000D01*
X198818400Y-175260000D02*
X199390000Y-175260000D01*
X199390000Y-175260000D02*
X210820000Y-175260000D01*
X186690000Y-145415000D02*
X186690000Y-139700000D01*
X193040000Y-151765000D02*
X186690000Y-145415000D01*
X190420600Y-171370600D02*
X209660000Y-171370600D01*
X189230000Y-170180000D02*
X190420600Y-171370600D01*
X240429700Y-191370300D02*
X240030000Y-191770000D01*
X240429700Y-172286900D02*
X240429700Y-191370300D01*
X239513400Y-171370600D02*
X240429700Y-172286900D01*
X209660000Y-171370600D02*
X239513400Y-171370600D01*
X209660000Y-140476600D02*
X224139600Y-125997000D01*
X209660000Y-171370600D02*
X209660000Y-140476600D01*
X224139600Y-125745400D02*
X224139600Y-125997000D01*
X224155000Y-125730000D02*
X224139600Y-125745400D01*
X249555000Y-132080000D02*
X248285000Y-130810000D01*
X249555000Y-133696800D02*
X249555000Y-132080000D01*
X250351600Y-134493400D02*
X249555000Y-133696800D01*
X251087600Y-134493400D02*
X250351600Y-134493400D01*
X252003000Y-135408800D02*
X251087600Y-134493400D01*
X252003000Y-136382900D02*
X252003000Y-135408800D01*
X250798600Y-137587300D02*
X252003000Y-136382900D01*
X234449100Y-137587300D02*
X250798600Y-137587300D01*
X228039400Y-131177600D02*
X234449100Y-137587300D01*
X228039400Y-129896800D02*
X228039400Y-131177600D01*
X224139600Y-125997000D02*
X228039400Y-129896800D01*
X199390000Y-130810000D02*
X199390000Y-128270000D01*
X236855000Y-135890000D02*
X231775000Y-130810000D01*
X248285000Y-135890000D02*
X236855000Y-135890000D01*
X231775000Y-130607000D02*
X231775000Y-130810000D01*
X225286800Y-124118800D02*
X231775000Y-130607000D01*
X203541200Y-124118800D02*
X225286800Y-124118800D01*
X199390000Y-128270000D02*
X203541200Y-124118800D01*
X233812500Y-130307500D02*
X247141600Y-130307500D01*
X231775000Y-128270000D02*
X233812500Y-130307500D01*
X247141600Y-132206600D02*
X248285000Y-133350000D01*
X247141600Y-130307500D02*
X247141600Y-132206600D01*
X225234900Y-127811300D02*
X225234900Y-131257100D01*
X224612700Y-127189100D02*
X225234900Y-127811300D01*
X223670000Y-127189100D02*
X224612700Y-127189100D01*
X210820000Y-140039100D02*
X223670000Y-127189100D01*
X210820000Y-170180000D02*
X210820000Y-140039100D01*
X224412000Y-132080000D02*
X225234900Y-131257100D01*
X223890300Y-132080000D02*
X224412000Y-132080000D01*
X223068100Y-132902200D02*
X223890300Y-132080000D01*
X223068100Y-134582400D02*
X223068100Y-132902200D01*
X256413300Y-167927600D02*
X223068100Y-134582400D01*
X256413300Y-170717300D02*
X256413300Y-167927600D01*
X255680600Y-171450000D02*
X256413300Y-170717300D01*
X254886900Y-171450000D02*
X255680600Y-171450000D01*
X247650000Y-178686900D02*
X254886900Y-171450000D01*
X247650000Y-191770000D02*
X247650000Y-178686900D01*
X232073500Y-138095700D02*
X225234900Y-131257100D01*
X251009200Y-138095700D02*
X232073500Y-138095700D01*
X252511400Y-136593500D02*
X251009200Y-138095700D01*
X252511400Y-130868500D02*
X252511400Y-136593500D01*
X251267200Y-129624300D02*
X252511400Y-130868500D01*
X247824800Y-129624300D02*
X251267200Y-129624300D01*
X247141600Y-130307500D02*
X247824800Y-129624300D01*
X222559700Y-137469700D02*
X255270000Y-170180000D01*
X222559700Y-132405300D02*
X222559700Y-137469700D01*
X224155000Y-130810000D02*
X222559700Y-132405300D01*
X242570000Y-182880000D02*
X242570000Y-191770000D01*
X255270000Y-170180000D02*
X242570000Y-182880000D01*
X242097500Y-192956900D02*
X241300000Y-192159400D01*
X243923100Y-192956900D02*
X242097500Y-192956900D01*
X245110000Y-191770000D02*
X243923100Y-192956900D01*
X239041800Y-170180000D02*
X223520000Y-170180000D01*
X241300000Y-172438200D02*
X239041800Y-170180000D01*
X241300000Y-192159400D02*
X241300000Y-172438200D01*
X222040400Y-168700400D02*
X223520000Y-170180000D01*
X222040400Y-130384600D02*
X222040400Y-168700400D01*
X224155000Y-128270000D02*
X222040400Y-130384600D01*
X218832900Y-193432900D02*
X214630000Y-189230000D01*
X240026500Y-193432900D02*
X218832900Y-193432900D01*
X241300000Y-192159400D02*
X240026500Y-193432900D01*
X195580000Y-166370000D02*
X195580000Y-151765000D01*
X199390000Y-170180000D02*
X195580000Y-166370000D01*
X230314900Y-131889900D02*
X231775000Y-133350000D01*
X230314900Y-129865900D02*
X230314900Y-131889900D01*
X225099100Y-124650100D02*
X230314900Y-129865900D01*
X222694900Y-124650100D02*
X225099100Y-124650100D01*
X195580000Y-151765000D02*
X222694900Y-124650100D01*
X248285000Y-125730000D02*
X247141700Y-125730000D01*
X235503900Y-137078900D02*
X231775000Y-133350000D01*
X248760700Y-137078900D02*
X235503900Y-137078900D01*
X249428400Y-136411200D02*
X248760700Y-137078900D01*
X249428400Y-135416600D02*
X249428400Y-136411200D01*
X248631800Y-134620000D02*
X249428400Y-135416600D01*
X237406000Y-134620000D02*
X248631800Y-134620000D01*
X232326100Y-129540100D02*
X237406000Y-134620000D01*
X231513500Y-129540100D02*
X232326100Y-129540100D01*
X230694800Y-128721400D02*
X231513500Y-129540100D01*
X230694800Y-127778500D02*
X230694800Y-128721400D01*
X231600000Y-126873300D02*
X230694800Y-127778500D01*
X245998400Y-126873300D02*
X231600000Y-126873300D01*
X247141700Y-125730000D02*
X245998400Y-126873300D01*
X189230000Y-172720000D02*
X199390000Y-172720000D01*
X199390000Y-172720000D02*
X210820000Y-172720000D01*
X210820000Y-172720000D02*
X223520000Y-172720000D01*
X188084400Y-171574400D02*
X189230000Y-172720000D01*
X188084400Y-169600500D02*
X188084400Y-171574400D01*
X194310000Y-163374900D02*
X188084400Y-169600500D01*
X194310000Y-151104400D02*
X194310000Y-163374900D01*
X200541600Y-144872800D02*
X194310000Y-151104400D01*
X200541600Y-132372000D02*
X200541600Y-144872800D01*
X200249600Y-132080000D02*
X200541600Y-132372000D01*
X198971900Y-132080000D02*
X200249600Y-132080000D01*
X198216900Y-131325000D02*
X198971900Y-132080000D01*
X198216900Y-125730000D02*
X198216900Y-131325000D01*
X199390000Y-125730000D02*
X198216900Y-125730000D01*
X191389000Y-125730000D02*
X185039000Y-119380000D01*
X198216900Y-125730000D02*
X191389000Y-125730000D01*
X223520000Y-172720000D02*
X238760000Y-172720000D01*
X238760000Y-172720000D02*
X238760000Y-173863300D01*
X250190000Y-177800000D02*
X250190000Y-191770000D01*
X255270000Y-172720000D02*
X250190000Y-177800000D01*
X212090000Y-189230000D02*
X213059000Y-189230000D01*
X213059000Y-189118400D02*
X213059000Y-189230000D01*
X214090700Y-188086700D02*
X213059000Y-189118400D01*
X217729300Y-188086700D02*
X214090700Y-188086700D01*
X218440000Y-188797400D02*
X217729300Y-188086700D01*
X218440000Y-189626200D02*
X218440000Y-188797400D01*
X221727200Y-192913400D02*
X218440000Y-189626200D01*
X238506400Y-192913400D02*
X221727200Y-192913400D01*
X238633400Y-192786400D02*
X238506400Y-192913400D01*
X238633400Y-184027000D02*
X238633400Y-192786400D01*
X239921300Y-182739100D02*
X238633400Y-184027000D01*
X239921300Y-174738800D02*
X239921300Y-182739100D01*
X239045800Y-173863300D02*
X239921300Y-174738800D01*
X238760000Y-173863300D02*
X239045800Y-173863300D01*
X213059000Y-189275900D02*
X213059000Y-189230000D01*
X217764800Y-193981700D02*
X213059000Y-189275900D01*
X247978300Y-193981700D02*
X217764800Y-193981700D01*
X250190000Y-191770000D02*
X247978300Y-193981700D01*
X201545400Y-123574600D02*
X199390000Y-125730000D01*
X229619600Y-123574600D02*
X201545400Y-123574600D01*
X231775000Y-125730000D02*
X229619600Y-123574600D01*
X232918400Y-124586600D02*
X231775000Y-125730000D01*
X249681600Y-124586600D02*
X232918400Y-124586600D01*
X250825000Y-125730000D02*
X249681600Y-124586600D01*
M02*
